<?xml version="1.0" encoding="UTF-8"?>
<svg id="Layer_2" data-name="Layer 2" xmlns="http://www.w3.org/2000/svg" viewBox="0 0 893.16 929.69">
  <defs>
    <style>
      .cls-1 {
        fill: #00b7ff;
        fill-rule: evenodd;
      }
    </style>
  </defs>
  <g id="Layer_1-2" data-name="Layer 1">
    <g>
      <path class="cls-1" d="M332.25,291.16l1.45,227.63-70.56-68.73-3.05,121.75,65.73,60.27-3.92,4.64-100.22-52.95,.05-235.86,110.52-56.74h0Zm1.58,446.05c-.17,35.39-.13,99.65-.13,135.04,12.68,5.48,107.28,57.44,107.96,57.44l451.49-238.59-.56-457.64L599.29,80.54l.27,93.06,205.27,105.95v376.21l-360.35,183.04-22.44-10.73V156.49L132.5,311.13v309.28l201.33,116.8Z"/>
      <polygon class="cls-1" points="88.33 274.53 438.65 91.06 466.21 104.96 466.21 775.66 554.55 726.45 554.55 505.53 667.42 505.53 667.42 673.43 760.19 628.52 760.66 311.13 672.33 266.94 672.33 426 554.55 426 554.55 57.27 448.76 0 .36 232.16 0 699.94 287.87 848.33 289.54 766.21 88.33 655.75 88.33 274.53"/>
    </g>
  </g>
</svg>